<svg width="207" height="207" viewBox="0 0 207 207" fill="none" xmlns="http://www.w3.org/2000/svg">
<path d="M33 104C49.5836 159.852 140.756 195.395 175 104" stroke="#B0A68F" stroke-width="3" stroke-linecap="round" stroke-dasharray="4.1 4.1"/>
<path d="M26 40C45.9211 142.814 140.644 208.241 181.779 40" stroke="#B0A68F" stroke-width="3.73869" stroke-linecap="round"/>
<path d="M69.6172 89.2257C74.7763 84.7741 88.978 76.7057 104.512 80.0443" stroke="#B0A68F" stroke-width="2.49246" stroke-linecap="round"/>
<path d="M139.406 89.2257C134.247 84.7741 120.045 76.7057 104.512 80.0443" stroke="#B0A68F" stroke-width="2.49246" stroke-linecap="round"/>
<path d="M69.6172 89.2264C74.9606 89.7829 89.6694 90.7914 105.758 90.3741" stroke="#B0A68F" stroke-width="2.49246" stroke-linecap="round"/>
<path d="M139.406 89.2264C134.431 89.7829 120.737 90.7914 105.758 90.3741" stroke="#B0A68F" stroke-width="2.49246" stroke-linecap="round"/>
<path d="M69.6172 89.2266C82.5099 100.512 114.518 116.311 139.406 89.2266" stroke="#B0A68F" stroke-width="2.49246" stroke-linecap="round"/>
<path d="M86.4414 48.1016C87.2722 54.3327 86.0675 60.8131 97.0344 56.8252" stroke="#B0A68F" stroke-width="2.49246" stroke-linecap="round"/>
<path d="M122.582 48.1016C121.751 54.3327 122.956 60.8131 111.989 56.8252" stroke="#B0A68F" stroke-width="2.49246" stroke-linecap="round"/>
<path d="M97.6602 56.8242C99.5295 59.5244 104.888 63.3046 111.369 56.8242" stroke="#B0A68F" stroke-width="2.49246" stroke-linecap="round"/>
<path d="M104.771 186C104.771 186.679 105.321 187.229 106 187.229C106.679 187.229 107.229 186.679 107.229 186L104.771 186ZM106.869 170.132C106.389 169.652 105.611 169.652 105.131 170.132L97.313 177.95C96.8332 178.43 96.8332 179.208 97.313 179.688C97.7927 180.167 98.5706 180.167 99.0504 179.688L106 172.738L112.95 179.688C113.429 180.167 114.207 180.167 114.687 179.688C115.167 179.208 115.167 178.43 114.687 177.95L106.869 170.132ZM107.229 186L107.229 171L104.771 171L104.771 186L107.229 186Z" fill="#B0A68F"/>
<path d="M48.0656 164.611C47.6251 165.127 47.6863 165.902 48.2024 166.343C48.7184 166.783 49.4939 166.722 49.9344 166.206L48.0656 164.611ZM59.9632 153.903C59.9098 153.227 59.3182 152.722 58.6418 152.775L47.6193 153.646C46.9429 153.699 46.4378 154.291 46.4913 154.967C46.5447 155.643 47.1363 156.148 47.8127 156.095L57.6105 155.321L58.3841 165.119C58.4375 165.796 59.0291 166.301 59.7055 166.247C60.3819 166.194 60.8869 165.602 60.8335 164.926L59.9632 153.903ZM49.9344 166.206L59.6729 154.798L57.8041 153.202L48.0656 164.611L49.9344 166.206Z" fill="#B0A68F"/>
<path d="M163.673 165.611C164.113 166.127 164.052 166.902 163.536 167.343C163.02 167.783 162.244 167.722 161.804 167.206L163.673 165.611ZM151.775 154.903C151.828 154.227 152.42 153.722 153.097 153.775L164.119 154.646C164.795 154.699 165.3 155.291 165.247 155.967C165.194 156.643 164.602 157.148 163.926 157.095L154.128 156.321L153.354 166.119C153.301 166.796 152.709 167.301 152.033 167.247C151.356 167.194 150.851 166.602 150.905 165.926L151.775 154.903ZM161.804 167.206L152.065 155.798L153.934 154.202L163.673 165.611L161.804 167.206Z" fill="#B0A68F"/>
<circle cx="103.5" cy="103.5" r="101" stroke="#B0A68F" stroke-width="5"/>
</svg>
