<svg width="207" height="207" viewBox="0 0 207 207" fill="none" xmlns="http://www.w3.org/2000/svg">
<circle cx="103.5" cy="103.5" r="101" stroke="#B0A68F" stroke-width="5"/>
<path d="M69.6172 91.2257C74.7763 86.7741 88.978 78.7057 104.512 82.0443" stroke="#B0A68F" stroke-width="2.49246" stroke-linecap="round"/>
<path d="M139.406 91.2257C134.247 86.7741 120.045 78.7057 104.512 82.0443" stroke="#B0A68F" stroke-width="2.49246" stroke-linecap="round"/>
<path d="M69.6172 91.2264C74.9606 91.7829 89.6694 92.7914 105.758 92.3741" stroke="#B0A68F" stroke-width="2.49246" stroke-linecap="round"/>
<path d="M139.406 91.2264C134.431 91.7829 120.737 92.7914 105.758 92.3741" stroke="#B0A68F" stroke-width="2.49246" stroke-linecap="round"/>
<path d="M69.6172 91.2266C82.5099 102.512 114.518 118.311 139.406 91.2266" stroke="#B0A68F" stroke-width="2.49246" stroke-linecap="round"/>
<path d="M26 42C45.9211 144.814 140.644 210.241 181.779 42" stroke="#B0A68F" stroke-width="3.73869" stroke-linecap="round"/>
<path d="M86.4414 50.1016C87.2722 56.3327 86.0675 62.8131 97.0344 58.8252" stroke="#B0A68F" stroke-width="2.49246" stroke-linecap="round"/>
<path d="M122.582 50.1016C121.751 56.3327 122.956 62.8131 111.989 58.8252" stroke="#B0A68F" stroke-width="2.49246" stroke-linecap="round"/>
<path d="M97.6602 58.8242C99.5295 61.5244 104.888 65.3046 111.369 58.8242" stroke="#B0A68F" stroke-width="2.49246" stroke-linecap="round"/>
<path d="M70.7071 42.7071C71.0976 42.3166 71.0976 41.6834 70.7071 41.2929L64.3431 34.9289C63.9526 34.5384 63.3195 34.5384 62.9289 34.9289C62.5384 35.3195 62.5384 35.9526 62.9289 36.3431L68.5858 42L62.9289 47.6569C62.5384 48.0474 62.5384 48.6805 62.9289 49.0711C63.3195 49.4616 63.9526 49.4616 64.3431 49.0711L70.7071 42.7071ZM34.2929 41.2929C33.9024 41.6834 33.9024 42.3166 34.2929 42.7071L40.6569 49.0711C41.0474 49.4616 41.6805 49.4616 42.0711 49.0711C42.4616 48.6805 42.4616 48.0474 42.0711 47.6569L36.4142 42L42.0711 36.3431C42.4616 35.9526 42.4616 35.3195 42.0711 34.9289C41.6805 34.5384 41.0474 34.5384 40.6569 34.9289L34.2929 41.2929ZM70 41L35 41V43L70 43V41Z" fill="#B0A68F"/>
<path d="M170.707 42.7071C171.098 42.3166 171.098 41.6834 170.707 41.2929L164.343 34.9289C163.953 34.5384 163.319 34.5384 162.929 34.9289C162.538 35.3195 162.538 35.9526 162.929 36.3431L168.586 42L162.929 47.6569C162.538 48.0474 162.538 48.6805 162.929 49.0711C163.319 49.4616 163.953 49.4616 164.343 49.0711L170.707 42.7071ZM134.293 41.2929C133.902 41.6834 133.902 42.3166 134.293 42.7071L140.657 49.0711C141.047 49.4616 141.681 49.4616 142.071 49.0711C142.462 48.6805 142.462 48.0474 142.071 47.6569L136.414 42L142.071 36.3431C142.462 35.9526 142.462 35.3195 142.071 34.9289C141.681 34.5384 141.047 34.5384 140.657 34.9289L134.293 41.2929ZM170 41L135 41V43L170 43V41Z" fill="#B0A68F"/>
<path d="M104.368 140.632C104.717 140.982 105.283 140.982 105.632 140.632L111.325 134.94C111.674 134.591 111.674 134.025 111.325 133.675C110.975 133.326 110.409 133.326 110.06 133.675L105 138.735L99.9404 133.675C99.5911 133.326 99.0247 133.326 98.6754 133.675C98.3261 134.025 98.3261 134.591 98.6754 134.94L104.368 140.632ZM105.632 111.368C105.283 111.018 104.717 111.018 104.368 111.368L98.6754 117.06C98.3261 117.409 98.3261 117.975 98.6754 118.325C99.0247 118.674 99.5911 118.674 99.9404 118.325L105 113.265L110.06 118.325C110.409 118.674 110.975 118.674 111.325 118.325C111.674 117.975 111.674 117.409 111.325 117.06L105.632 111.368ZM105.894 140L105.894 112L104.106 112L104.106 140L105.894 140Z" fill="#B0A68F"/>
</svg>
