<svg width="207" height="207" viewBox="0 0 207 207" fill="none" xmlns="http://www.w3.org/2000/svg">
<circle cx="103.5" cy="103.5" r="101" stroke="#B0A68F" stroke-width="5"/>
<path d="M71 93.3871C75.879 90.5352 89.3096 85.3662 104 87.5051" stroke="#B0A68F" stroke-width="2" stroke-linecap="round"/>
<path d="M137 93.3871C132.042 90.5352 118.395 85.3662 103.468 87.5051" stroke="#B0A68F" stroke-width="2" stroke-linecap="round"/>
<path d="M74 92.9999C78.6429 93.4753 91.4236 94.3367 105.403 93.9803" stroke="#B0A68F" stroke-width="2" stroke-linecap="round"/>
<path d="M134 93C129.565 93.4465 117.355 94.2558 104 93.9209" stroke="#B0A68F" stroke-width="2" stroke-linecap="round"/>
<path d="M71 93.5C83.1928 98.7824 113.463 106.178 137 93.5" stroke="#B0A68F" stroke-width="2" stroke-linecap="round"/>
<path d="M26 41C45.9211 143.814 140.644 209.241 181.779 41" stroke="#B0A68F" stroke-width="3.73869" stroke-linecap="round"/>
<path d="M86.4414 49.1016C87.2722 55.3327 86.0675 61.8131 97.0344 57.8252" stroke="#B0A68F" stroke-width="2.49246" stroke-linecap="round"/>
<path d="M122.582 49.1016C121.751 55.3327 122.956 61.8131 111.989 57.8252" stroke="#B0A68F" stroke-width="2.49246" stroke-linecap="round"/>
<path d="M97.6602 57.8242C99.5295 60.5244 104.888 64.3046 111.369 57.8242" stroke="#B0A68F" stroke-width="2.49246" stroke-linecap="round"/>
</svg>
