<svg width="207" height="207" viewBox="0 0 207 207" fill="none" xmlns="http://www.w3.org/2000/svg">
<path d="M69.6172 90.2257C74.7763 85.7741 88.978 77.7057 104.512 81.0443" stroke="#B0A68F" stroke-width="2.49246" stroke-linecap="round"/>
<path d="M139.406 90.2257C134.247 85.7741 120.045 77.7057 104.512 81.0443" stroke="#B0A68F" stroke-width="2.49246" stroke-linecap="round"/>
<path d="M69.6172 90.2264C74.9606 90.7829 89.6694 91.7914 105.758 91.3741" stroke="#B0A68F" stroke-width="2.49246" stroke-linecap="round"/>
<path d="M139.406 90.2264C134.431 90.7829 120.737 91.7914 105.758 91.3741" stroke="#B0A68F" stroke-width="2.49246" stroke-linecap="round"/>
<path d="M69.6172 90.2266C82.5099 101.512 114.518 117.311 139.406 90.2266" stroke="#B0A68F" stroke-width="2.49246" stroke-linecap="round"/>
<path d="M26 41C45.9211 143.814 140.644 209.241 181.779 41" stroke="#B0A68F" stroke-width="3.73869" stroke-linecap="round"/>
<path d="M86.4414 49.1016C87.2722 55.3327 86.0675 61.8131 97.0344 57.8252" stroke="#B0A68F" stroke-width="2.49246" stroke-linecap="round"/>
<path d="M122.582 49.1016C121.751 55.3327 122.956 61.8131 111.989 57.8252" stroke="#B0A68F" stroke-width="2.49246" stroke-linecap="round"/>
<path d="M97.6602 57.8242C99.5295 60.5244 104.888 64.3046 111.369 57.8242" stroke="#B0A68F" stroke-width="2.49246" stroke-linecap="round"/>
<circle cx="103.5" cy="103.5" r="101" stroke="#B0A68F" stroke-width="5"/>
<path d="M62.1061 67.9399C61.4892 68.2693 61.0995 68.9148 60.849 69.6794C60.5964 70.4504 60.4657 71.4016 60.4091 72.4311C60.2957 74.4911 60.4755 76.9501 60.6385 79.0859C60.644 79.158 60.6495 79.2297 60.6549 79.301C60.7306 80.2912 60.8004 81.2047 60.8345 81.9783C60.8714 82.8177 60.8638 83.4533 60.7893 83.8341C60.7734 83.9153 60.7567 83.9722 60.7426 84.011C60.6639 83.9538 60.5465 83.8416 60.3873 83.6422C60.1973 83.4041 59.9688 83.0692 59.6966 82.6211C57.6509 79.2535 54.9783 76.9722 52.3303 74.712C52.071 74.4906 51.812 74.2695 51.5537 74.0476C48.6514 71.5531 45.8324 68.9415 43.8213 64.7677C43.311 63.7088 42.951 62.9128 42.7149 62.3164C42.4747 61.7098 42.3771 61.3441 42.3636 61.1314C42.3599 61.0724 42.3636 61.0372 42.3671 61.0185C42.3914 61.0126 42.4369 61.0063 42.5147 61.0078C42.6085 61.0095 42.7232 61.0214 42.8663 61.0402C42.9232 61.0477 42.9837 61.0562 43.0474 61.0652C43.6005 61.143 44.3947 61.2549 45.2125 61.0097C46.1546 60.7273 47.0748 59.9959 47.7977 58.4061C48.4377 56.9989 49.7499 55.9515 51.3158 55.2719C52.8794 54.5933 54.6568 54.2998 56.161 54.373C56.9126 54.4096 57.5829 54.5372 58.1181 54.7446C58.6565 54.9533 59.0304 55.2316 59.2336 55.5512C59.4282 55.8573 59.4923 56.2414 59.3351 56.7374C59.1738 57.2466 58.778 57.8711 58.0468 58.6073C56.4906 60.1741 56.1294 61.5349 56.6063 62.725C57.057 63.8495 58.218 64.6887 59.3374 65.3506C59.7771 65.6106 60.2284 65.853 60.6471 66.0778C60.7696 66.1436 60.8892 66.2079 61.005 66.2706C61.5265 66.5534 61.962 66.8022 62.2639 67.0352C62.4143 67.1512 62.515 67.251 62.575 67.3347C62.6337 67.4166 62.6386 67.4618 62.6379 67.4803C62.6365 67.514 62.5951 67.6787 62.1061 67.9399Z" fill="#F6EFE3" stroke="#B0A68F" stroke-width="0.724138"/>
<path d="M157.83 44.1285C157.304 44.4097 156.95 45.0018 156.699 45.7103C156.443 46.4303 156.271 47.3346 156.15 48.3279C155.928 50.1562 155.876 52.3422 155.827 54.3431C155.823 54.5166 155.819 54.6888 155.815 54.8592C155.788 55.9306 155.759 56.9329 155.701 57.7875C155.642 58.648 155.556 59.3343 155.423 59.7844C155.356 60.0127 155.286 60.1465 155.227 60.2132C155.187 60.2584 155.174 60.2546 155.163 60.2518C155.162 60.2515 155.161 60.2512 155.16 60.251C155.114 60.2411 155.007 60.1891 154.837 60.0062C154.673 59.8302 154.477 59.5632 154.248 59.1855C152.38 56.1101 151.717 54.5784 151.087 52.9192C150.991 52.6671 150.896 52.4118 150.798 52.1475C150.243 50.6562 149.583 48.8802 148.101 45.8045C147.219 43.9749 146.368 42.8927 145.612 42.2244C144.858 41.5584 144.214 41.3175 143.779 41.155L143.766 41.1503C143.537 41.0646 143.425 41.018 143.359 40.9653C143.335 40.9459 143.326 40.932 143.321 40.9203C143.315 40.9067 143.306 40.877 143.308 40.8161C143.311 40.683 143.362 40.4655 143.501 40.0961C143.637 39.7338 143.845 39.2553 144.138 38.6115C144.432 37.9651 144.705 37.3418 144.963 36.7514L144.979 36.7138C145.232 36.1366 145.47 35.592 145.702 35.0847C146.177 34.0446 146.618 33.1813 147.082 32.5392C147.547 31.8966 148.011 31.5104 148.522 31.3695C149.026 31.2304 149.64 31.3133 150.446 31.7516C151.253 32.19 152.323 33.0884 153.431 34.2377C154.534 35.3821 155.655 36.7559 156.566 38.1263C157.48 39.5019 158.167 40.8514 158.423 41.95C158.551 42.4988 158.566 42.9606 158.469 43.3232C158.375 43.6742 158.174 43.945 157.83 44.1285Z" fill="#F6EFE3" stroke="#B0A68F" stroke-width="0.615256"/>
<path d="M94.5711 127.879C93.6892 128.35 93.1346 128.867 92.7438 129.269C92.669 129.346 92.6036 129.415 92.5444 129.478C92.4434 129.584 92.3607 129.672 92.2807 129.746C92.1522 129.866 92.0949 129.887 92.0746 129.891C92.071 129.891 92.0643 129.892 92.047 129.886C92.026 129.878 91.989 129.858 91.9336 129.81C91.8189 129.712 91.6681 129.533 91.4579 129.233C91.0944 128.713 90.5988 127.896 89.8561 126.671C89.7443 126.487 89.627 126.294 89.5037 126.091C89.0237 125.301 88.5533 124.801 88.0689 124.574C87.5549 124.334 87.0708 124.423 86.647 124.695C86.2416 124.955 85.8817 125.387 85.5557 125.863C85.2414 126.322 84.939 126.852 84.6468 127.364C84.6332 127.388 84.6197 127.411 84.6062 127.435C84.2978 127.975 84.0009 128.49 83.7001 128.911C83.3943 129.338 83.1133 129.625 82.8521 129.751C82.7284 129.811 82.6154 129.831 82.5058 129.819C82.3951 129.806 82.2646 129.757 82.1115 129.641C81.7957 129.402 81.4212 128.907 80.9928 128.018C80.1126 126.191 79.2759 125.027 78.5477 124.229C77.9845 123.612 77.483 123.212 77.1052 122.911C76.9974 122.825 76.8998 122.747 76.8136 122.674C76.6149 122.507 76.4893 122.378 76.4117 122.247C76.34 122.126 76.3002 121.987 76.3088 121.783C76.3275 121.337 76.5683 120.641 77.1594 119.341C77.76 118.02 78.1487 116.486 78.4483 114.972C78.5984 114.213 78.7269 113.456 78.8483 112.73C78.8607 112.655 78.873 112.582 78.8852 112.508C78.9932 111.861 79.0965 111.242 79.2062 110.668C79.4538 109.371 79.7244 108.364 80.1126 107.792C80.3004 107.516 80.4944 107.373 80.6985 107.326C80.9045 107.279 81.1828 107.314 81.5679 107.524C81.9528 107.733 82.5015 108.179 83.1717 108.828C83.8361 109.471 84.6018 110.296 85.4187 111.244C87.0524 113.139 88.881 115.516 90.4988 117.891C92.1187 120.269 93.518 122.632 94.3018 124.503C94.6951 125.442 94.923 126.233 94.9585 126.829C94.9943 127.428 94.836 127.738 94.5711 127.879Z" fill="#F6EFE3" stroke="#B0A68F" stroke-width="0.615256"/>
<path d="M71.8702 28.8675C71.598 29.0129 71.3629 29.2617 71.156 29.5647C70.9472 29.8705 70.7535 30.2516 70.5716 30.6881C70.2078 31.5607 69.8773 32.6885 69.5679 33.9553C69.0974 35.8818 68.6683 38.1624 68.2459 40.4077C68.1129 41.1145 67.9806 41.8178 67.8479 42.5054C67.2898 45.3965 66.7273 47.9916 66.0798 49.4792C65.9192 49.8484 65.7593 50.1345 65.6024 50.3356C65.443 50.5398 65.3086 50.628 65.2063 50.6548C65.1199 50.6774 65.0094 50.6686 64.8519 50.5549C64.6859 50.435 64.4879 50.2107 64.2629 49.8403C63.3153 48.2803 62.5748 47.3974 61.9333 46.8451C61.3608 46.3523 60.8746 46.1312 60.4399 45.9334C60.3839 45.9079 60.3288 45.8829 60.2744 45.8576C59.8123 45.6433 59.376 45.4081 58.8409 44.7988C58.2952 44.1776 57.641 43.16 56.7767 41.3665C55.9115 39.5708 55.5648 38.4133 55.5361 37.6057C55.522 37.2087 55.5852 36.9013 55.6987 36.644C55.813 36.3852 55.9854 36.161 56.2122 35.9395C56.4371 35.7199 56.7207 35.5045 57.0384 35.2631C57.9867 34.5428 59.2385 33.5919 60.1392 31.6115C60.4331 30.9651 60.7059 30.3418 60.9641 29.7514L60.9806 29.7137C61.233 29.1365 61.4711 28.5919 61.703 28.0847C62.1784 27.0446 62.6187 26.1813 63.083 25.5392C63.5478 24.8966 64.0119 24.5104 64.5227 24.3695C65.0271 24.2304 65.6415 24.3133 66.4476 24.7516C67.3121 25.2216 68.3004 25.6362 69.2301 26.018C69.3197 26.0548 69.4086 26.0912 69.4968 26.1274C70.3327 26.4699 71.1023 26.7852 71.6998 27.0981C72.0296 27.2707 72.2921 27.4353 72.4785 27.5936C72.669 27.7554 72.748 27.884 72.7691 27.9775C72.7856 28.0508 72.7776 28.1507 72.6535 28.3006C72.5219 28.4596 72.2775 28.65 71.8702 28.8675Z" fill="#F6EFE3" stroke="#B0A68F" stroke-width="0.615256"/>
<circle cx="103.5" cy="103.5" r="101" stroke="#B0A68F" stroke-width="5"/>
<path d="M62.1061 67.9399C61.4892 68.2693 61.0995 68.9148 60.849 69.6794C60.5964 70.4504 60.4657 71.4016 60.4091 72.4311C60.2957 74.4911 60.4755 76.9501 60.6385 79.0859C60.644 79.158 60.6495 79.2297 60.6549 79.301C60.7306 80.2912 60.8004 81.2047 60.8345 81.9783C60.8714 82.8177 60.8638 83.4533 60.7893 83.8341C60.7734 83.9153 60.7567 83.9722 60.7426 84.011C60.6639 83.9538 60.5465 83.8416 60.3873 83.6422C60.1973 83.4041 59.9688 83.0692 59.6966 82.6211C57.6509 79.2535 54.9783 76.9722 52.3303 74.712C52.071 74.4906 51.812 74.2695 51.5537 74.0476C48.6514 71.5531 45.8324 68.9415 43.8213 64.7677C43.311 63.7088 42.951 62.9128 42.7149 62.3164C42.4747 61.7098 42.3771 61.3441 42.3636 61.1314C42.3599 61.0724 42.3636 61.0372 42.3671 61.0185C42.3914 61.0126 42.4369 61.0063 42.5147 61.0078C42.6085 61.0095 42.7232 61.0214 42.8663 61.0402C42.9232 61.0477 42.9837 61.0562 43.0474 61.0652C43.6005 61.143 44.3947 61.2549 45.2125 61.0097C46.1546 60.7273 47.0748 59.9959 47.7977 58.4061C48.4377 56.9989 49.7499 55.9515 51.3158 55.2719C52.8794 54.5933 54.6568 54.2998 56.161 54.373C56.9126 54.4096 57.5829 54.5372 58.1181 54.7446C58.6565 54.9533 59.0304 55.2316 59.2336 55.5512C59.4282 55.8573 59.4923 56.2414 59.3351 56.7374C59.1738 57.2466 58.778 57.8711 58.0468 58.6073C56.4906 60.1741 56.1294 61.5349 56.6063 62.725C57.057 63.8495 58.218 64.6887 59.3374 65.3506C59.7771 65.6106 60.2284 65.853 60.6471 66.0778C60.7696 66.1436 60.8892 66.2079 61.005 66.2706C61.5265 66.5534 61.962 66.8022 62.2639 67.0352C62.4143 67.1512 62.515 67.251 62.575 67.3347C62.6337 67.4166 62.6386 67.4618 62.6379 67.4803C62.6365 67.514 62.5951 67.6787 62.1061 67.9399Z" fill="#F6EFE3" stroke="#B0A68F" stroke-width="0.724138"/>
<path d="M157.83 44.1285C157.304 44.4097 156.95 45.0018 156.699 45.7103C156.443 46.4303 156.271 47.3346 156.15 48.3279C155.928 50.1562 155.876 52.3422 155.827 54.3431C155.823 54.5166 155.819 54.6888 155.815 54.8592C155.788 55.9306 155.759 56.9329 155.701 57.7875C155.642 58.648 155.556 59.3343 155.423 59.7844C155.356 60.0127 155.286 60.1465 155.227 60.2132C155.187 60.2584 155.174 60.2546 155.163 60.2518C155.162 60.2515 155.161 60.2512 155.16 60.251C155.114 60.2411 155.007 60.1891 154.837 60.0062C154.673 59.8302 154.477 59.5632 154.248 59.1855C152.38 56.1101 151.717 54.5784 151.087 52.9192C150.991 52.6671 150.896 52.4118 150.798 52.1475C150.243 50.6562 149.583 48.8802 148.101 45.8045C147.219 43.9749 146.368 42.8927 145.612 42.2244C144.858 41.5584 144.214 41.3175 143.779 41.155L143.766 41.1503C143.537 41.0646 143.425 41.018 143.359 40.9653C143.335 40.9459 143.326 40.932 143.321 40.9203C143.315 40.9067 143.306 40.877 143.308 40.8161C143.311 40.683 143.362 40.4655 143.501 40.0961C143.637 39.7338 143.845 39.2553 144.138 38.6115C144.432 37.9651 144.705 37.3418 144.963 36.7514L144.979 36.7138C145.232 36.1366 145.47 35.592 145.702 35.0847C146.177 34.0446 146.618 33.1813 147.082 32.5392C147.547 31.8966 148.011 31.5104 148.522 31.3695C149.026 31.2304 149.64 31.3133 150.446 31.7516C151.253 32.19 152.323 33.0884 153.431 34.2377C154.534 35.3821 155.655 36.7559 156.566 38.1263C157.48 39.5019 158.167 40.8514 158.423 41.95C158.551 42.4988 158.566 42.9606 158.469 43.3232C158.375 43.6742 158.174 43.945 157.83 44.1285Z" fill="#F6EFE3" stroke="#B0A68F" stroke-width="0.615256"/>
<path d="M94.5711 127.879C93.6892 128.35 93.1346 128.867 92.7438 129.269C92.669 129.346 92.6036 129.415 92.5444 129.478C92.4434 129.584 92.3607 129.672 92.2807 129.746C92.1522 129.866 92.0949 129.887 92.0746 129.891C92.071 129.891 92.0643 129.892 92.047 129.886C92.026 129.878 91.989 129.858 91.9336 129.81C91.8189 129.712 91.6681 129.533 91.4579 129.233C91.0944 128.713 90.5988 127.896 89.8561 126.671C89.7443 126.487 89.627 126.294 89.5037 126.091C89.0237 125.301 88.5533 124.801 88.0689 124.574C87.5549 124.334 87.0708 124.423 86.647 124.695C86.2416 124.955 85.8817 125.387 85.5557 125.863C85.2414 126.322 84.939 126.852 84.6468 127.364C84.6332 127.388 84.6197 127.411 84.6062 127.435C84.2978 127.975 84.0009 128.49 83.7001 128.911C83.3943 129.338 83.1133 129.625 82.8521 129.751C82.7284 129.811 82.6154 129.831 82.5058 129.819C82.3951 129.806 82.2646 129.757 82.1115 129.641C81.7957 129.402 81.4212 128.907 80.9928 128.018C80.1126 126.191 79.2759 125.027 78.5477 124.229C77.9845 123.612 77.483 123.212 77.1052 122.911C76.9974 122.825 76.8998 122.747 76.8136 122.674C76.6149 122.507 76.4893 122.378 76.4117 122.247C76.34 122.126 76.3002 121.987 76.3088 121.783C76.3275 121.337 76.5683 120.641 77.1594 119.341C77.76 118.02 78.1487 116.486 78.4483 114.972C78.5984 114.213 78.7269 113.456 78.8483 112.73C78.8607 112.655 78.873 112.582 78.8852 112.508C78.9932 111.861 79.0965 111.242 79.2062 110.668C79.4538 109.371 79.7244 108.364 80.1126 107.792C80.3004 107.516 80.4944 107.373 80.6985 107.326C80.9045 107.279 81.1828 107.314 81.5679 107.524C81.9528 107.733 82.5015 108.179 83.1717 108.828C83.8361 109.471 84.6018 110.296 85.4187 111.244C87.0524 113.139 88.881 115.516 90.4988 117.891C92.1187 120.269 93.518 122.632 94.3018 124.503C94.6951 125.442 94.923 126.233 94.9585 126.829C94.9943 127.428 94.836 127.738 94.5711 127.879Z" fill="#F6EFE3" stroke="#B0A68F" stroke-width="0.615256"/>
<path d="M71.8702 28.8675C71.598 29.0129 71.3629 29.2617 71.156 29.5647C70.9472 29.8705 70.7535 30.2516 70.5716 30.6881C70.2078 31.5607 69.8773 32.6885 69.5679 33.9553C69.0974 35.8818 68.6683 38.1624 68.2459 40.4077C68.1129 41.1145 67.9806 41.8178 67.8479 42.5054C67.2898 45.3965 66.7273 47.9916 66.0798 49.4792C65.9192 49.8484 65.7593 50.1345 65.6024 50.3356C65.443 50.5398 65.3086 50.628 65.2063 50.6548C65.1199 50.6774 65.0094 50.6686 64.8519 50.5549C64.6859 50.435 64.4879 50.2107 64.2629 49.8403C63.3153 48.2803 62.5748 47.3974 61.9333 46.8451C61.3608 46.3523 60.8746 46.1312 60.4399 45.9334C60.3839 45.9079 60.3288 45.8829 60.2744 45.8576C59.8123 45.6433 59.376 45.4081 58.8409 44.7988C58.2952 44.1776 57.641 43.16 56.7767 41.3665C55.9115 39.5708 55.5648 38.4133 55.5361 37.6057C55.522 37.2087 55.5852 36.9013 55.6987 36.644C55.813 36.3852 55.9854 36.161 56.2122 35.9395C56.4371 35.7199 56.7207 35.5045 57.0384 35.2631C57.9867 34.5428 59.2385 33.5919 60.1392 31.6115C60.4331 30.9651 60.7059 30.3418 60.9641 29.7514L60.9806 29.7137C61.233 29.1365 61.4711 28.5919 61.703 28.0847C62.1784 27.0446 62.6187 26.1813 63.083 25.5392C63.5478 24.8966 64.0119 24.5104 64.5227 24.3695C65.0271 24.2304 65.6415 24.3133 66.4476 24.7516C67.3121 25.2216 68.3004 25.6362 69.2301 26.018C69.3197 26.0548 69.4086 26.0912 69.4968 26.1274C70.3327 26.4699 71.1023 26.7852 71.6998 27.0981C72.0296 27.2707 72.2921 27.4353 72.4785 27.5936C72.669 27.7554 72.748 27.884 72.7691 27.9775C72.7856 28.0508 72.7776 28.1507 72.6535 28.3006C72.5219 28.4596 72.2775 28.65 71.8702 28.8675Z" fill="#F6EFE3" stroke="#B0A68F" stroke-width="0.615256"/>
</svg>
