<svg width="1032" height="201" viewBox="0 0 1032 201" fill="none" xmlns="http://www.w3.org/2000/svg">
<path d="M172.626 14.2411H174.009V41.1211H172.549V26.2603C172.549 23.2267 172.703 16.8139 172.665 16.8139H172.626C172.588 16.8139 171.628 18.6187 170.361 20.8843L162.489 34.5163H161.721L153.849 20.8843C152.581 18.6187 151.621 16.8139 151.583 16.8139H151.545C151.506 16.8139 151.66 23.2267 151.66 26.2603V41.1211H150.201V14.2411H151.583L159.071 27.2203C161.567 31.4827 162.028 32.7499 162.066 32.7499H162.105C162.143 32.7499 162.642 31.4827 165.138 27.2203L172.626 14.2411ZM206.435 41.1211L202.672 32.6731H187.888L184.124 41.1211H182.55L194.646 14.2411H195.913L208.009 41.1211H206.435ZM188.502 31.3291H202.057L196.528 18.9259C195.952 17.6203 195.337 16.0075 195.299 16.0075H195.26C195.222 16.0075 194.608 17.6203 194.032 18.9259L188.502 31.3291ZM217.99 39.7003H233.273V41.1211H216.531V14.2411H217.99V39.7003ZM234.443 14.2411H254.756V15.6619H245.348V41.1211H243.851V15.6619H234.443V14.2411ZM280.88 41.1211L277.117 32.6731H262.333L258.569 41.1211H256.995L269.091 14.2411H270.358L282.454 41.1211H280.88ZM262.947 31.3291H276.502L270.973 18.9259C270.397 17.6203 269.782 16.0075 269.744 16.0075H269.705C269.667 16.0075 269.053 17.6203 268.477 18.9259L262.947 31.3291ZM288.431 16.5835L288.699 16.3915H288.431C287.778 16.4683 287.01 15.9691 287.01 15.0475C287.01 14.2027 287.663 13.7035 288.431 13.7035C289.199 13.7035 289.813 14.4331 289.813 15.4315C289.813 17.7355 288.546 19.7707 287.509 20.9611H286.626C287.624 19.8475 288.431 18.3115 288.431 16.5835ZM317.889 20.8075L316.469 21.1915C315.893 17.4283 312.782 15.0859 308.712 15.0859C304.373 15.0859 301.185 17.1211 301.185 20.6539C301.185 24.1483 305.448 25.2235 309.173 26.2219C312.782 27.1819 318.35 28.5643 318.35 34.0939C318.35 38.4331 314.587 41.6587 308.865 41.6587C303.029 41.6587 299.573 38.1259 299.189 33.8251L300.609 33.4411C300.84 37.1275 303.758 40.2763 308.865 40.2763C313.742 40.2763 316.853 37.6651 316.853 34.0939C316.853 29.2555 311.438 28.3339 307.675 27.2971C304.641 26.4523 299.688 25.2619 299.688 20.6539C299.688 16.4683 303.528 13.7035 308.712 13.7035C313.473 13.7035 317.16 16.4299 317.889 20.8075ZM342.655 39.7003H357.938V41.1211H341.196V14.2411H342.655V39.7003ZM367.87 39.7003H383.768V41.1211H366.411V14.2411H383.537V15.6619H367.87V25.9147H380.58V27.2971H367.87V39.7003ZM414.845 41.1211L411.082 32.6731H396.298L392.534 41.1211H390.96L403.056 14.2411H404.323L416.419 41.1211H414.845ZM396.912 31.3291H410.467L404.938 18.9259C404.362 17.6203 403.747 16.0075 403.709 16.0075H403.67C403.632 16.0075 403.018 17.6203 402.442 18.9259L396.912 31.3291ZM424.941 14.2411H436.038C443.718 14.2411 449.939 19.7707 449.939 27.8347C449.939 35.7067 443.795 41.1211 436.384 41.1211H424.941V14.2411ZM426.4 39.7003H436.384C442.874 39.7003 448.442 35.2075 448.442 27.8347C448.442 20.3851 442.874 15.6619 436.038 15.6619H426.4V39.7003ZM460.578 41.1211H459.118V14.2411H460.578V41.1211ZM491.691 14.2411H493.15V41.1211H491.767L476.638 20.7307C474.334 17.6203 473.643 16.5067 473.604 16.5067H473.566C473.527 16.5067 473.643 19.4635 473.643 22.9195V41.1211H472.183V14.2411H473.566L488.619 34.4779C490.807 37.3963 491.729 38.7019 491.767 38.7019H491.806C491.844 38.7019 491.691 35.7067 491.691 32.3275V14.2411ZM527.602 36.2059H527.563C526.45 37.7419 522.917 41.6587 516.427 41.6587C508.709 41.6587 502.488 35.7835 502.488 27.6811C502.488 19.5787 508.709 13.7035 516.427 13.7035C522.149 13.8955 526.335 16.6219 528.639 20.6923L527.141 21.0763C525.029 17.3899 521.035 15.1243 516.427 15.1243C509.477 15.1243 503.986 20.1547 503.986 27.6811C503.986 35.0923 509.477 40.2379 516.427 40.2379C522.149 40.2379 526.411 36.6667 527.563 34.2091V29.1787H518.808V27.8731H528.946V41.1979H527.563C527.563 37.3579 527.602 36.2443 527.602 36.2059ZM582.202 14.2411H583.661L574.138 41.1211H572.986L568.301 26.1067C566.919 21.7675 566.727 20.5003 566.688 20.5003H566.65C566.611 20.5003 566.381 21.8059 565.037 26.1067L560.314 41.1211H559.2L549.639 14.2411H551.136L558.547 35.1307C559.315 37.3579 559.699 38.8171 559.738 38.8171H559.776C559.815 38.8171 560.083 37.3579 560.813 35.1307L566.112 18.3883H567.187L572.525 35.1307C573.216 37.3579 573.523 38.8171 573.562 38.8171H573.6C573.639 38.8171 574.023 37.3579 574.752 35.1307L582.202 14.2411ZM593.253 39.7003H609.15V41.1211H591.793V14.2411H608.92V15.6619H593.253V25.9147H605.963V27.2971H593.253V39.7003ZM620.605 39.7003H635.888V41.1211H619.146V14.2411H620.605V39.7003ZM645.82 39.7003H661.103V41.1211H644.361V14.2411H645.82V39.7003ZM689.083 14.2411H690.542V41.1211H689.16L674.03 20.7307C671.726 17.6203 671.035 16.5067 670.997 16.5067H670.958C670.92 16.5067 671.035 19.4635 671.035 22.9195V41.1211H669.576V14.2411H670.958L686.011 34.4779C688.2 37.3963 689.122 38.7019 689.16 38.7019H689.198C689.237 38.7019 689.083 35.7067 689.083 32.3275V14.2411ZM703.6 39.7003H719.498V41.1211H702.141V14.2411H719.267V15.6619H703.6V25.9147H716.311V27.2971H703.6V39.7003ZM744.992 20.8075L743.571 21.1915C742.995 17.4283 739.885 15.0859 735.814 15.0859C731.475 15.0859 728.288 17.1211 728.288 20.6539C728.288 24.1483 732.55 25.2235 736.275 26.2219C739.885 27.1819 745.453 28.5643 745.453 34.0939C745.453 38.4331 741.69 41.6587 735.968 41.6587C730.131 41.6587 726.675 38.1259 726.291 33.8251L727.712 33.4411C727.942 37.1275 730.861 40.2763 735.968 40.2763C740.845 40.2763 743.955 37.6651 743.955 34.0939C743.955 29.2555 738.541 28.3339 734.778 27.2971C731.744 26.4523 726.79 25.2619 726.79 20.6539C726.79 16.4683 730.63 13.7035 735.814 13.7035C740.576 13.7035 744.262 16.4299 744.992 20.8075ZM771.332 20.8075L769.911 21.1915C769.335 17.4283 766.225 15.0859 762.154 15.0859C757.815 15.0859 754.628 17.1211 754.628 20.6539C754.628 24.1483 758.89 25.2235 762.615 26.2219C766.225 27.1819 771.793 28.5643 771.793 34.0939C771.793 38.4331 768.03 41.6587 762.308 41.6587C756.471 41.6587 753.015 38.1259 752.631 33.8251L754.052 33.4411C754.282 37.1275 757.201 40.2763 762.308 40.2763C767.185 40.2763 770.295 37.6651 770.295 34.0939C770.295 29.2555 764.881 28.3339 761.118 27.2971C758.084 26.4523 753.13 25.2619 753.13 20.6539C753.13 16.4683 756.97 13.7035 762.154 13.7035C766.916 13.7035 770.602 16.4299 771.332 20.8075ZM818.754 20.6923L817.256 21.0763C815.144 17.3899 811.15 15.1243 806.542 15.1243C799.592 15.1243 794.101 20.1547 794.101 27.6811C794.101 35.0923 799.592 40.1995 806.542 40.1995C811.419 40.1995 815.605 37.5883 817.678 33.4795L819.138 33.9019C816.872 38.6635 812.149 41.6587 806.542 41.6587C798.824 41.6587 792.603 35.7835 792.603 27.6811C792.603 19.5787 798.824 13.7035 806.542 13.7035C811.803 13.7035 816.334 16.4299 818.754 20.6923ZM845.899 14.2411H847.396V41.1211H845.899V27.6811H828.888V41.1211H827.428V14.2411H828.888V26.2603H845.899V14.2411ZM879.8 41.1211L876.037 32.6731H861.253L857.49 41.1211H855.915L868.011 14.2411H869.278L881.375 41.1211H879.8ZM861.867 31.3291H875.422L869.893 18.9259C869.317 17.6203 868.702 16.0075 868.664 16.0075H868.626C868.587 16.0075 867.973 17.6203 867.397 18.9259L861.867 31.3291ZM891.355 41.1211H889.896V14.2411H891.355V41.1211ZM922.468 14.2411H923.927V41.1211H922.545L907.415 20.7307C905.111 17.6203 904.42 16.5067 904.382 16.5067H904.343C904.305 16.5067 904.42 19.4635 904.42 22.9195V41.1211H902.961V14.2411H904.343L919.396 34.4779C921.585 37.3963 922.507 38.7019 922.545 38.7019H922.583C922.622 38.7019 922.468 35.7067 922.468 32.3275V14.2411Z" fill="#9B8C81"/>
<path d="M150.162 97.9109L148.78 97.5269C149.74 93.1493 153.081 90.4613 157.919 90.4613C164.485 90.4613 166.789 94.2245 166.789 97.3733C166.789 101.136 163.948 103.671 160.607 103.824V103.863C163.948 104.055 167.058 106.205 167.058 110.199C167.058 115.306 163.18 118.417 157.957 118.417C153.004 118.417 148.895 115.421 148.165 110.66L149.509 110.276C150.047 114.385 153.541 117.034 157.957 117.034C163.218 117.034 165.561 113.847 165.561 110.199C165.561 106.321 162.489 104.554 157.765 104.554H155.385V103.21H157.804C162.489 103.21 165.292 101.482 165.292 97.3733C165.292 95.1461 163.602 91.8437 157.919 91.8437C153.465 91.8437 151.045 94.1861 150.162 97.9109ZM186.523 90.4613C194.203 90.4613 198.465 97.1045 198.465 104.439C198.465 111.773 194.203 118.417 186.523 118.417C178.843 118.417 174.58 111.773 174.58 104.439C174.58 97.1045 178.843 90.4613 186.523 90.4613ZM186.523 91.8821C179.649 91.8821 176.078 97.8725 176.078 104.439C176.078 111.005 179.649 116.996 186.523 116.996C193.435 116.996 196.968 111.005 196.968 104.439C196.968 97.8725 193.435 91.8821 186.523 91.8821ZM226.527 103.556V104.9H218.309V113.041H216.812V104.9H208.594V103.556H216.812V95.5685H218.309V103.556H226.527ZM269.621 90.9989H271.388L260.904 104.016V117.879H259.445V104.016L248.962 90.9989H250.728L258.408 100.56C259.061 101.328 260.136 102.788 260.175 102.788H260.213C260.252 102.788 261.365 101.328 261.98 100.56L269.621 90.9989ZM280.922 116.458H296.82V117.879H279.463V90.9989H296.59V92.4197H280.922V102.672H293.633V104.055H280.922V116.458ZM327.897 117.879L324.134 109.431H309.35L305.587 117.879H304.013L316.109 90.9989H317.376L329.472 117.879H327.897ZM309.965 108.087H323.52L317.99 95.6837C317.414 94.3781 316.8 92.7653 316.761 92.7653H316.723C316.685 92.7653 316.07 94.3781 315.494 95.6837L309.965 108.087ZM355.772 117.879H354.044L347.401 107.05C346.71 107.165 345.98 107.204 345.212 107.204H339.452V117.879H337.993V90.9989H345.212C351.28 90.9989 354.928 94.0709 354.928 99.1397C354.928 103.095 352.7 105.783 348.86 106.781L355.772 117.879ZM339.452 105.898H345.212C350.55 105.898 353.43 103.21 353.43 99.1397C353.43 94.7237 350.243 92.4197 345.212 92.4197H339.452V105.898ZM381.932 97.5653L380.511 97.9493C379.935 94.1861 376.825 91.8437 372.754 91.8437C368.415 91.8437 365.228 93.8789 365.228 97.4117C365.228 100.906 369.49 101.981 373.215 102.98C376.825 103.94 382.393 105.322 382.393 110.852C382.393 115.191 378.629 118.417 372.908 118.417C367.071 118.417 363.615 114.884 363.231 110.583L364.652 110.199C364.882 113.885 367.801 117.034 372.908 117.034C377.785 117.034 380.895 114.423 380.895 110.852C380.895 106.013 375.481 105.092 371.717 104.055C368.684 103.21 363.73 102.02 363.73 97.4117C363.73 93.2261 367.57 90.4613 372.754 90.4613C377.516 90.4613 381.202 93.1877 381.932 97.5653ZM406.697 117.879H405.238V90.9989H406.697V117.879ZM437.81 90.9989H439.27V117.879H437.887L422.758 97.4885C420.454 94.3781 419.762 93.2645 419.724 93.2645H419.686C419.647 93.2645 419.762 96.2213 419.762 99.6773V117.879H418.303V90.9989H419.686L434.738 111.236C436.927 114.154 437.849 115.46 437.887 115.46H437.926C437.964 115.46 437.81 112.465 437.81 109.085V90.9989ZM464.308 90.9989H473.601C478.132 90.9989 481.166 93.5333 481.166 97.3733C481.166 100.176 478.555 102.596 476.174 102.98V103.018C478.785 103.172 483.086 105.668 483.086 110.045C483.086 114.845 479.707 117.879 474.561 117.879H464.308V90.9989ZM465.768 102.519H473.332C477.172 102.519 479.668 100.138 479.668 97.4117C479.668 94.3013 477.172 92.3429 473.332 92.3429H465.768V102.519ZM465.768 116.535H474.6C478.478 116.535 481.55 114.116 481.55 110.161C481.55 106.513 478.209 103.824 474.292 103.824H465.768V116.535ZM511.604 90.9989H513.101V107.127C513.101 114.5 509.415 118.455 502.464 118.455C495.476 118.455 491.866 114.5 491.866 107.127V90.9989H493.325V107.281C493.325 113.693 496.436 117.034 502.464 117.034C508.532 117.034 511.604 113.693 511.604 107.281V90.9989ZM540.287 97.5653L538.866 97.9493C538.29 94.1861 535.18 91.8437 531.109 91.8437C526.77 91.8437 523.583 93.8789 523.583 97.4117C523.583 100.906 527.845 101.981 531.57 102.98C535.18 103.94 540.748 105.322 540.748 110.852C540.748 115.191 536.985 118.417 531.263 118.417C525.426 118.417 521.97 114.884 521.586 110.583L523.007 110.199C523.237 113.885 526.156 117.034 531.263 117.034C536.14 117.034 539.25 114.423 539.25 110.852C539.25 106.013 533.836 105.092 530.073 104.055C527.039 103.21 522.085 102.02 522.085 97.4117C522.085 93.2261 525.925 90.4613 531.109 90.4613C535.871 90.4613 539.557 93.1877 540.287 97.5653ZM551.613 117.879H550.153V90.9989H551.613V117.879ZM582.726 90.9989H584.185V117.879H582.802L567.673 97.4885C565.369 94.3781 564.678 93.2645 564.639 93.2645H564.601C564.562 93.2645 564.678 96.2213 564.678 99.6773V117.879H563.218V90.9989H564.601L579.654 111.236C581.842 114.154 582.764 115.46 582.802 115.46H582.841C582.879 115.46 582.726 112.465 582.726 109.085V90.9989ZM597.243 116.458H613.14V117.879H595.783V90.9989H612.91V92.4197H597.243V102.672H609.953V104.055H597.243V116.458ZM638.634 97.5653L637.214 97.9493C636.638 94.1861 633.527 91.8437 629.457 91.8437C625.118 91.8437 621.93 93.8789 621.93 97.4117C621.93 100.906 626.193 101.981 629.918 102.98C633.527 103.94 639.095 105.322 639.095 110.852C639.095 115.191 635.332 118.417 629.61 118.417C623.774 118.417 620.318 114.884 619.934 110.583L621.354 110.199C621.585 113.885 624.503 117.034 629.61 117.034C634.487 117.034 637.598 114.423 637.598 110.852C637.598 106.013 632.183 105.092 628.42 104.055C625.386 103.21 620.433 102.02 620.433 97.4117C620.433 93.2261 624.273 90.4613 629.457 90.4613C634.218 90.4613 637.905 93.1877 638.634 97.5653ZM664.974 97.5653L663.554 97.9493C662.978 94.1861 659.867 91.8437 655.797 91.8437C651.458 91.8437 648.27 93.8789 648.27 97.4117C648.27 100.906 652.533 101.981 656.258 102.98C659.867 103.94 665.435 105.322 665.435 110.852C665.435 115.191 661.672 118.417 655.95 118.417C650.114 118.417 646.658 114.884 646.274 110.583L647.694 110.199C647.925 113.885 650.843 117.034 655.95 117.034C660.827 117.034 663.938 114.423 663.938 110.852C663.938 106.013 658.523 105.092 654.76 104.055C651.726 103.21 646.773 102.02 646.773 97.4117C646.773 93.2261 650.613 90.4613 655.797 90.4613C660.558 90.4613 664.245 93.1877 664.974 97.5653Z" fill="#9B8C81"/>
<path d="M172.624 167.749H174.007V194.629H172.548V179.768C172.548 176.734 172.701 170.322 172.663 170.322H172.624C172.586 170.322 171.626 172.126 170.359 174.392L162.487 188.024H161.719L153.847 174.392C152.58 172.126 151.62 170.322 151.581 170.322H151.543C151.504 170.322 151.658 176.734 151.658 179.768V194.629H150.199V167.749H151.581L159.069 180.728C161.565 184.991 162.026 186.258 162.064 186.258H162.103C162.141 186.258 162.64 184.991 165.136 180.728L172.624 167.749ZM187.073 193.208H202.971V194.629H185.614V167.749H202.74V169.17H187.073V179.422H199.783V180.805H187.073V193.208ZM212.966 167.749H224.064C231.744 167.749 237.965 173.278 237.965 181.342C237.965 189.215 231.821 194.629 224.409 194.629H212.966V167.749ZM214.425 193.208H224.409C230.899 193.208 236.467 188.715 236.467 181.342C236.467 173.893 230.899 169.17 224.064 169.17H214.425V193.208ZM248.603 194.629H247.144V167.749H248.603V194.629ZM284.099 174.2L282.601 174.584C280.489 170.898 276.496 168.632 271.888 168.632C264.937 168.632 259.446 173.662 259.446 181.189C259.446 188.6 264.937 193.707 271.888 193.707C276.765 193.707 280.95 191.096 283.024 186.987L284.483 187.41C282.217 192.171 277.494 195.167 271.888 195.167C264.169 195.167 257.949 189.291 257.949 181.189C257.949 173.086 264.169 167.211 271.888 167.211C277.149 167.211 281.68 169.938 284.099 174.2ZM313.48 194.629L309.717 186.181H294.933L291.17 194.629H289.596L301.692 167.749H302.959L315.055 194.629H313.48ZM295.548 184.837H309.103L303.573 172.434C302.997 171.128 302.383 169.515 302.344 169.515H302.306C302.268 169.515 301.653 171.128 301.077 172.434L295.548 184.837ZM325.035 193.208H340.319V194.629H323.576V167.749H325.035V193.208ZM350.251 193.208H365.534V194.629H348.791V167.749H350.251V193.208ZM386.867 167.749H388.633L378.15 180.766V194.629H376.691V180.766L366.208 167.749H367.974L375.654 177.31C376.307 178.078 377.382 179.538 377.42 179.538H377.459C377.497 179.538 378.611 178.078 379.225 177.31L386.867 167.749ZM421.66 199.698V195.128C414.287 194.783 408.489 189.023 408.489 181.189C408.489 173.086 414.709 167.211 422.428 167.211C430.146 167.211 436.405 173.086 436.405 181.189C436.405 189.023 430.569 194.783 423.196 195.128V199.698H421.66ZM422.428 193.746C429.34 193.746 434.908 188.6 434.908 181.189C434.908 173.662 429.34 168.632 422.428 168.632C415.477 168.632 409.986 173.662 409.986 181.189C409.986 188.6 415.477 193.746 422.428 193.746ZM464.869 167.749H466.367V183.877C466.367 191.25 462.68 195.205 455.73 195.205C448.741 195.205 445.132 191.25 445.132 183.877V167.749H446.591V184.031C446.591 190.443 449.701 193.784 455.73 193.784C461.797 193.784 464.869 190.443 464.869 184.031V167.749ZM496.548 194.629L492.785 186.181H478.001L474.238 194.629H472.663L484.759 167.749H486.026L498.122 194.629H496.548ZM478.615 184.837H492.17L486.641 172.434C486.065 171.128 485.45 169.515 485.412 169.515H485.374C485.335 169.515 484.721 171.128 484.145 172.434L478.615 184.837ZM508.103 193.208H523.386V194.629H506.644V167.749H508.103V193.208ZM533.318 194.629H531.859V167.749H533.318V194.629ZM561.666 169.17H546.383V180.152H558.709V181.573H546.383V194.629H544.924V167.749H561.666V169.17ZM572.161 194.629H570.701V167.749H572.161V194.629ZM585.226 193.208H601.123V194.629H583.766V167.749H600.893V169.17H585.226V179.422H597.936V180.805H585.226V193.208ZM611.119 167.749H622.217C629.897 167.749 636.117 173.278 636.117 181.342C636.117 189.215 629.973 194.629 622.562 194.629H611.119V167.749ZM612.578 193.208H622.562C629.052 193.208 634.62 188.715 634.62 181.342C634.62 173.893 629.052 169.17 622.217 169.17H612.578V193.208ZM675.585 174.315L674.164 174.699C673.588 170.936 670.478 168.594 666.407 168.594C662.068 168.594 658.881 170.629 658.881 174.162C658.881 177.656 663.143 178.731 666.868 179.73C670.478 180.69 676.046 182.072 676.046 187.602C676.046 191.941 672.283 195.167 666.561 195.167C660.724 195.167 657.268 191.634 656.884 187.333L658.305 186.949C658.535 190.635 661.454 193.784 666.561 193.784C671.438 193.784 674.548 191.173 674.548 187.602C674.548 182.763 669.134 181.842 665.371 180.805C662.337 179.96 657.383 178.77 657.383 174.162C657.383 169.976 661.223 167.211 666.407 167.211C671.169 167.211 674.855 169.938 675.585 174.315ZM681.561 167.749H701.874V169.17H692.466V194.629H690.969V169.17H681.561V167.749ZM727.998 194.629L724.235 186.181H709.451L705.688 194.629H704.113L716.209 167.749H717.476L729.572 194.629H727.998ZM710.065 184.837H723.62L718.091 172.434C717.515 171.128 716.9 169.515 716.862 169.515H716.824C716.785 169.515 716.171 171.128 715.595 172.434L710.065 184.837ZM754.836 169.17H739.553V180.152H751.88V181.573H739.553V194.629H738.094V167.749H754.836V169.17ZM780.614 169.17H765.331V180.152H777.657V181.573H765.331V194.629H763.872V167.749H780.614V169.17Z" fill="#9B8C81"/>
<rect x="1" y="1.10938" width="38.3804" height="38.3804" stroke="#96B2B2" stroke-width="1.91902"/>
<rect x="1" y="77.9453" width="38.3804" height="38.3804" stroke="#96B2B2" stroke-width="1.91902"/>
<rect x="1" y="154.703" width="38.3804" height="38.3804" stroke="#96B2B2" stroke-width="1.91902"/>
<line y1="-1.19924" x2="13.4034" y2="-1.19924" transform="matrix(0.690845 0.723003 -0.703621 0.710575 13.8164 20.2148)" stroke="#96B2B2" stroke-width="2.39849"/>
<line y1="-1.19924" x2="40.1515" y2="-1.19924" transform="matrix(-0.703621 0.710575 -0.690845 -0.723003 51.4102 1.33203)" stroke="#96B2B2" stroke-width="2.39849"/>
<line y1="-1.19924" x2="13.4034" y2="-1.19924" transform="matrix(0.690845 0.723003 -0.703621 0.710575 13.8164 97.0469)" stroke="#96B2B2" stroke-width="2.39849"/>
<line y1="-1.19924" x2="40.1515" y2="-1.19924" transform="matrix(-0.703621 0.710575 -0.690845 -0.723003 51.4102 78.1641)" stroke="#96B2B2" stroke-width="2.39849"/>
<line y1="-1.19924" x2="13.4034" y2="-1.19924" transform="matrix(0.690845 0.723003 -0.703621 0.710575 13.8164 173.816)" stroke="#96B2B2" stroke-width="2.39849"/>
<line y1="-1.19924" x2="40.1515" y2="-1.19924" transform="matrix(-0.703621 0.710575 -0.690845 -0.723003 51.4102 154.934)" stroke="#96B2B2" stroke-width="2.39849"/>
</svg>
